<svg width="512" height="512" xmlns="http://www.w3.org/2000/svg" xml:space="preserve" version="1.1">

 <g>
  <title>Layer 1</title>
  <g id="svg_24"/>
  <g id="svg_25"/>
  <g id="svg_26"/>
  <g id="svg_27"/>
  <g id="svg_28"/>
  <g id="svg_29"/>
  <g id="svg_30"/>
  <g id="svg_31"/>
  <g id="svg_32"/>
  <g id="svg_33"/>
  <g id="svg_34"/>
  <g id="svg_35"/>
  <g id="svg_36"/>
  <g id="svg_37"/>
  <g id="svg_38"/>
  <g id="svg_39">
   <g id="svg_1">
    <g id="svg_2">
     <path fill="#4C261D" id="svg_3" d="m88.741,98.841c-5.651,0 -10.245,4.594 -10.245,10.245c0,5.662 4.594,10.245 10.245,10.245c5.662,0 10.245,-4.583 10.245,-10.245c0,-5.651 -4.583,-10.245 -10.245,-10.245z"/>
    </g>
   </g>
   <g id="svg_4">
    <g id="svg_5">
     <path fill="#4C261D" id="svg_6" d="m88.741,98.841c-5.651,0 -10.245,4.594 -10.245,10.245c0,5.662 4.594,10.245 10.245,10.245c5.662,0 10.245,-4.583 10.245,-10.245c0,-5.651 -4.583,-10.245 -10.245,-10.245z"/>
    </g>
   </g>
   <g id="svg_7">
    <g id="svg_8">
     <path fill="#4C261D" id="svg_9" d="m184.399,274.199c-7.808,-2.789 -13.936,-9.332 -16.84,-17.991l-9.478,-30.362c-1.701,-5.475 -7.518,-8.513 -12.982,-6.813c-5.475,1.711 -8.524,7.518 -6.813,12.993l9.509,30.455c0.01,0.052 0.031,0.104 0.041,0.145c0.01,0.021 0.042,0.104 0.042,0.114c4.905,14.735 15.668,26.038 29.553,30.994c1.151,0.415 2.323,0.601 3.484,0.601c4.262,0 8.254,-2.644 9.768,-6.885c1.918,-5.391 -0.892,-11.323 -6.284,-13.251z"/>
    </g>
   </g>
   <g id="svg_10">
    <g id="svg_11">
     <path fill="#4C261D" id="svg_12" d="m512,387.453c0,-1.379 -0.28,-2.748 -0.819,-4.023l-20.459,-48.56c0,0 -0.031,-95.15 -0.093,-96.27c-0.498,-8.036 0.83,-16.187 3.961,-24.233c15.886,-40.855 9.187,-110.725 8.897,-113.68c-0.55,-5.517 -5.361,-9.612 -10.878,-9.322c-5.537,0.301 -9.861,4.915 -9.82,10.452c0.114,13.086 -5.299,47.16 -26.535,82.447c-2.084,3.453 -6.18,5.216 -10.432,4.49c-0.622,-0.104 -224.954,-36.127 -224.954,-36.127l-59.417,-74.214c0.622,-0.944 1.213,-1.929 1.784,-2.966c6.885,-12.661 6.388,-28.049 -1.286,-40.161c-1.918,-3.028 -5.237,-4.832 -8.835,-4.822c-5.371,0.031 -10.577,1.161 -15.357,3.225c-0.861,-1.649 -1.825,-3.246 -2.924,-4.76c-1.877,-2.623 -4.967,-4.086 -8.192,-3.868c-13.978,0.933 -26.38,9.415 -32.342,22.128c-1.846,3.92 -2.976,7.933 -3.349,11.935l-31.948,25.895l-48.633,0c-5.723,0 -10.369,4.646 -10.369,10.369c0,39.103 30.175,71.3 68.459,74.525c0,0 33.825,108.34 33.908,108.547c8.866,26.214 27.593,46.932 51.982,57.851l0,94.984c-12.557,1.348 -23.041,10.888 -25.001,23.248c-1.296,8.15 1.006,16.394 6.315,22.616c5.319,6.222 13.055,9.799 21.237,9.799l21.9,0c9.727,0 18.437,-4.345 24.337,-11.178l7.601,0c17.721,0 32.135,-14.424 32.135,-32.156l0,-20.594c0,0 0.031,-57.032 0.042,-84.386l114.976,-15.056l59.624,74.67l0.031,21.838c-12.557,1.338 -23.041,10.878 -25.001,23.238c-1.296,8.15 1.006,16.394 6.315,22.616c5.32,6.232 13.055,9.799 21.226,9.799l15.502,0c0.363,0.477 0.726,0.954 1.12,1.41c5.309,6.232 13.055,9.799 21.226,9.799l21.911,0c17.732,0 32.156,-14.424 32.156,-32.156l-0.124,0c0.071,-0.508 0.123,-67.349 0.123,-67.349zm-289.867,35.578l0,20.594c0,6.222 -4.998,11.292 -11.189,11.406c0,-0.073 0.01,-0.156 0.01,-0.228l0,-20.594c0,0 0,-15.876 0.01,-35.235c0.01,-19.36 0.01,-42.203 0.021,-56.14l11.189,-1.472c-0.009,28.38 -0.041,81.669 -0.041,81.669zm208.26,31.512c-0.021,0.156 -0.042,0.311 -0.062,0.467l-10.245,0c-2.095,0 -4.086,-0.923 -5.444,-2.52c-0.809,-0.944 -2.084,-2.955 -1.618,-5.9c0.539,-3.38 3.785,-5.921 7.57,-5.921l7.497,-0.114c5.662,-0.093 10.193,-4.708 10.193,-10.369l-0.031,-35.515c0,-2.333 -0.778,-4.594 -2.219,-6.419l-52.625,-65.981c7.062,1.618 13.522,5.568 18.115,11.386l53.869,70.419l0,27.22c-12.557,1.347 -23.04,10.887 -25,23.247zm60.868,0.26l0,0c0,6.294 -5.122,11.417 -11.417,11.417l-21.911,0c-2.095,0 -4.086,-0.923 -5.454,-2.52c-0.798,-0.944 -2.074,-2.955 -1.607,-5.9c0.539,-3.38 3.785,-5.921 7.57,-5.921l7.487,-0.114c5.662,-0.093 10.203,-4.708 10.203,-10.369l0,-40.836c0,-0.062 -0.01,-0.135 -0.021,-0.197c-0.041,-2.136 -0.726,-4.272 -2.115,-6.108l-56.047,-73.26c-0.021,-0.031 -0.052,-0.073 -0.083,-0.114c-11.469,-14.569 -30.009,-22.128 -48.404,-19.723l-170.193,22.284c-5.226,0.684 -9.011,5.143 -9.011,10.276l-0.01,0c-0.01,18.54 -0.031,99.246 -0.031,100.469c0,0.01 0,0.01 0,0.021l0,20.594c0,6.294 -5.122,11.417 -11.417,11.417l-21.9,0c-2.105,0 -4.096,-0.923 -5.454,-2.52c-0.809,-0.944 -2.084,-2.955 -1.618,-5.9c0.539,-3.38 3.795,-5.921 7.57,-5.921l7.487,-0.114c5.662,-0.093 10.203,-4.708 10.203,-10.369l0,-112.083c0,-4.5 -2.883,-8.327 -6.885,-9.758l0,-0.01c-21.869,-7.808 -38.75,-25.364 -46.341,-48.156c-0.031,-0.104 -0.073,-0.207 -0.104,-0.311l-35.692,-114.353c-1.348,-4.334 -5.361,-7.29 -9.903,-7.29l-1.369,0c-26.255,0 -48.207,-18.82 -53.05,-43.676l40.928,0c2.385,0 4.687,-0.819 6.533,-2.312l35.515,-28.786l12.454,0c8.368,0.467 16.197,-4.583 19.194,-12.485c0.27,-0.736 0.456,-1.078 0.456,-1.078c2.229,-4.106 5.838,-7.165 10.069,-8.731c0.964,4.386 0.353,9.073 -1.856,13.148c-0.435,0.788 -0.892,1.514 -1.369,2.157c-4.894,6.668 -4.677,15.865 0.529,22.367l62.984,78.673c1.607,2.001 3.909,3.349 6.45,3.754c0,0 228.283,36.666 228.708,36.739c12.723,2.167 25.167,-3.422 31.679,-14.248c2.779,-4.614 5.299,-9.167 7.58,-13.625c-1.4,9.25 -3.432,18.043 -6.336,25.519c-4.22,10.857 -6.025,21.973 -5.34,33.027c0.042,0.684 0.062,97.089 0.062,97.089c0,1.379 0.28,2.748 0.819,4.023l20.459,48.56c0,0 0.052,64.747 0.124,65.255l-0.125,0l0,-0.001z"/>
    </g>
   </g>
   <g id="svg_13">
    <g id="svg_14">
     <path fill="#4C261D" id="svg_15" d="m122.307,44.889c-4.407,1.628 -8.13,4.822 -10.473,9.032l5.485,0c0.404,-0.975 0.83,-1.887 1.265,-2.696c1.13,-2.074 2.447,-4.013 3.888,-5.828c-0.061,-0.165 -0.103,-0.342 -0.165,-0.508z"/>
    </g>
   </g>
   <g id="svg_16">
    <g id="svg_17">
     <path fill="#4C261D" id="svg_18" d="m88.741,98.841c-5.651,0 -10.245,4.594 -10.245,10.245c0,5.662 4.594,10.245 10.245,10.245c5.662,0 10.245,-4.583 10.245,-10.245c0,-5.651 -4.583,-10.245 -10.245,-10.245z"/>
    </g>
   </g>
   <g id="SVGCleanerId_1">
    <g id="svg_19">
     <path fill="#4C261D" id="svg_20" d="m184.399,274.199c-7.808,-2.789 -13.936,-9.332 -16.84,-17.991l-9.478,-30.362c-1.701,-5.475 -7.518,-8.513 -12.982,-6.813c-5.475,1.711 -8.524,7.518 -6.813,12.993l9.509,30.455c0.01,0.052 0.031,0.104 0.041,0.145c0.01,0.021 0.042,0.104 0.042,0.114c4.905,14.735 15.668,26.038 29.553,30.994c1.151,0.415 2.323,0.601 3.484,0.601c4.262,0 8.254,-2.644 9.768,-6.885c1.918,-5.391 -0.892,-11.323 -6.284,-13.251z"/>
    </g>
   </g>
   <g id="svg_21">
    <g id="svg_22">
     <path fill="#4C261D" id="svg_23" d="m184.399,274.199c-7.808,-2.789 -13.936,-9.332 -16.84,-17.991l-9.478,-30.362c-1.701,-5.475 -7.518,-8.513 -12.982,-6.813c-5.475,1.711 -8.524,7.518 -6.813,12.993l9.509,30.455c0.01,0.052 0.031,0.104 0.041,0.145c0.01,0.021 0.042,0.104 0.042,0.114c4.905,14.735 15.668,26.038 29.553,30.994c1.151,0.415 2.323,0.601 3.484,0.601c4.262,0 8.254,-2.644 9.768,-6.885c1.918,-5.391 -0.892,-11.323 -6.284,-13.251z"/>
    </g>
   </g>
  </g>
 </g>
</svg>