<svg width="512" height="512" xmlns="http://www.w3.org/2000/svg" xml:space="preserve" version="1.1">

 <g>
  <title>Layer 1</title>
  <g id="svg_1">
   <g id="svg_2">
    <path fill="#153723" id="svg_3" d="m345.704,50.077c-1.416,-1.282 -2.876,-2.551 -4.342,-3.772c-4.505,-3.748 -11.197,-3.135 -14.945,1.369c-3.749,4.505 -3.136,11.196 1.369,14.945c1.236,1.029 2.468,2.1 3.662,3.182c2.032,1.842 4.582,2.751 7.125,2.751c2.891,0 5.771,-1.174 7.865,-3.484c3.936,-4.343 3.607,-11.054 -0.734,-14.991z"/>
   </g>
  </g>
  <g id="svg_4">
   <g id="svg_5">
    <path fill="#153723" id="svg_6" d="m227.364,105.566l-6.49,-6.489c-4.143,-4.145 -10.864,-4.144 -15.008,0.001c-4.144,4.144 -4.143,10.864 0.001,15.008l6.49,6.489c2.073,2.073 4.787,3.108 7.504,3.108s5.432,-1.037 7.504,-3.109c4.144,-4.145 4.143,-10.864 -0.001,-15.008z"/>
   </g>
  </g>
  <g id="svg_7">
   <g id="svg_8">
    <path fill="#153723" id="svg_9" d="m299.152,181.454c-11.377,-9.123 -26.332,-14.266 -42.26,-14.551c-0.153,-0.006 -0.304,-0.023 -0.458,-0.023l-0.868,0c-0.132,0 -0.259,0.015 -0.389,0.02c-15.914,0.259 -30.92,5.407 -42.329,14.555c-12.299,9.863 -19.073,23.163 -19.073,37.45c0,14.283 6.773,27.582 19.072,37.446c11.377,9.127 26.333,14.271 42.26,14.557c0.154,0.006 0.305,0.023 0.459,0.023l0.868,0c0.132,0 0.26,-0.015 0.389,-0.02c15.913,-0.259 30.92,-5.408 42.329,-14.561c12.299,-9.864 19.073,-23.163 19.073,-37.446c0,-14.287 -6.773,-27.588 -19.073,-37.45zm-43.118,68.251c-22.631,-0.159 -41.037,-13.971 -41.037,-30.8c0,-16.829 18.406,-30.64 40.968,-30.799c22.631,0.159 41.037,13.971 41.037,30.799c0,16.829 -18.405,30.641 -40.968,30.8z"/>
   </g>
  </g>
  <g id="svg_10">
   <g id="svg_11">
    <path fill="#153723" id="svg_12" d="m306.133,99.078c-4.142,-4.143 -10.862,-4.144 -15.008,-0.001l-6.49,6.489c-4.144,4.143 -4.145,10.862 -0.001,15.008c2.071,2.073 4.788,3.109 7.504,3.109c2.717,0 5.432,-1.037 7.504,-3.108l6.49,-6.489c4.144,-4.144 4.145,-10.863 0.001,-15.008z"/>
   </g>
  </g>
  <g id="svg_13">
   <g id="svg_14">
    <path fill="#153723" id="svg_15" d="m261.589,208.293l-11.178,0c-5.86,0 -10.612,4.752 -10.612,10.612s4.751,10.612 10.612,10.612l11.178,0c5.86,0 10.612,-4.752 10.612,-10.612s-4.752,-10.612 -10.612,-10.612z"/>
   </g>
  </g>
  <g id="svg_16">
   <g id="svg_17">
    <path fill="#153723" id="svg_18" d="m501.388,475.462l-18.501,0c-2.201,-14.09 -8.764,-27.091 -19.043,-37.383c-12.817,-12.817 -29.859,-19.875 -47.986,-19.875c-6.963,0 -13.51,-2.71 -18.427,-7.619c-4.922,-4.929 -7.631,-11.478 -7.631,-18.439l0,-91.498l7.948,4.589c1.67,0.965 3.495,1.423 5.293,1.423c3.669,0 7.236,-1.905 9.202,-5.31c2.93,-5.076 1.189,-11.565 -3.887,-14.495l-18.556,-10.714l0,-46.624l33.928,0c5.86,0 10.612,-4.752 10.612,-10.612s-4.752,-10.612 -10.612,-10.612l-33.928,0l0,-46.631l18.559,-10.718c5.075,-2.931 6.814,-9.421 3.882,-14.496c-2.931,-5.076 -9.419,-6.819 -14.496,-3.882l-8.503,4.91c-1.828,-20.373 -8.257,-40.071 -18.896,-57.571c-3.045,-5.007 -9.571,-6.598 -14.581,-3.555c-5.008,3.045 -6.6,9.573 -3.555,14.581c10.685,17.576 16.341,37.794 16.364,58.481l-30.214,17.447c-5.075,2.932 -6.814,9.421 -3.883,14.497c1.966,3.404 5.533,5.307 9.201,5.307c1.8,0 3.625,-0.459 5.296,-1.424l19.602,-11.32l0,34.375l-13.426,0c-5.86,0 -10.612,4.752 -10.612,10.612s4.752,10.612 10.612,10.612l13.426,0l0,34.371l-19.602,-11.317c-5.078,-2.931 -11.566,-1.19 -14.497,3.883c-2.931,5.076 -1.192,11.566 3.883,14.497l30.216,17.443l0,103.75c0,9.425 2.741,18.43 7.847,26.113l-16.693,0c-5.86,0 -10.612,4.752 -10.612,10.612c0,5.86 4.752,10.612 10.612,10.612l58.289,0c0.011,0 0.021,-0.001 0.032,-0.001c11.634,0.535 22.496,5.316 30.781,13.602c6.252,6.257 10.497,13.976 12.444,22.379l-19.068,0l0,-7.837c0,-5.86 -4.752,-10.612 -10.612,-10.612s-10.612,4.752 -10.612,10.612l0,7.837l-15.468,0l0,-7.837c0,-5.86 -4.752,-10.612 -10.612,-10.612s-10.612,4.752 -10.612,10.612l0,7.837l-33.037,0c-9.917,0 -17.984,-8.071 -17.984,-17.995l0,-82.6c0,-20.626 -8.036,-40.028 -22.632,-54.635c-14.586,-14.588 -33.989,-22.622 -54.636,-22.622c-42.606,0 -77.269,34.658 -77.269,77.258l0,82.6c0,9.923 -8.068,17.995 -17.984,17.995l-33.037,0l0,-7.837c0,-5.86 -4.752,-10.612 -10.612,-10.612c-5.86,0 -10.612,4.752 -10.612,10.612l0,7.837l-15.472,0l0,-7.837c0,-5.86 -4.752,-10.612 -10.612,-10.612s-10.612,4.752 -10.612,10.612l0,7.837l-19.069,0c1.946,-8.402 6.192,-16.12 12.439,-22.374c8.289,-8.29 19.152,-13.072 30.786,-13.607c0.011,0 0.021,0.001 0.032,0.001l58.289,0c5.86,0 10.612,-4.752 10.612,-10.612s-4.752,-10.612 -10.612,-10.612l-16.736,0c4.98,-7.488 7.891,-16.466 7.891,-26.113l0,-102.103l33.067,-19.09c5.076,-2.93 6.816,-9.42 3.886,-14.496c-2.931,-5.076 -9.42,-6.816 -14.496,-3.886l-22.457,12.965l0,-36.019l16.281,0c5.86,0 10.612,-4.752 10.612,-10.612s-4.752,-10.612 -10.612,-10.612l-16.281,0l0,-36.022l22.455,12.968c1.671,0.965 3.497,1.424 5.296,1.424c3.668,0 7.234,-1.904 9.201,-5.307c2.931,-5.075 1.192,-11.565 -3.883,-14.497l-33.047,-19.085c0.944,-61.276 51.063,-111.001 112.551,-111.227c16.471,0.06 32.333,3.581 47.143,10.462c1.446,0.673 2.968,0.991 4.465,0.991c4.002,0 7.834,-2.274 9.63,-6.142c2.47,-5.315 0.163,-11.625 -5.151,-14.095c-17.365,-8.069 -35.933,-12.245 -55.2,-12.428c-0.151,-0.006 -0.298,-0.022 -0.451,-0.022c-0.141,0 -0.289,0.004 -0.434,0.007c-0.145,-0.003 -0.293,-0.007 -0.434,-0.007c-0.15,0 -0.294,0.016 -0.443,0.022c-68.78,0.655 -125.412,53.437 -132.234,120.568l-5.78,-3.339c-5.077,-2.931 -11.565,-1.191 -14.497,3.883c-2.931,5.075 -1.192,11.565 3.883,14.497l15.706,9.07l0,48.278l-31.063,0c-5.86,0 -10.612,4.752 -10.612,10.612c0,5.86 4.752,10.612 10.612,10.612l31.063,0l0,48.271l-15.706,9.067c-5.075,2.932 -6.814,9.421 -3.883,14.497c1.966,3.404 5.533,5.307 9.201,5.307c1.8,0 3.625,-0.46 5.296,-1.424l5.092,-2.94l0,89.849c0,14.369 -11.69,26.059 -26.059,26.059c-18.126,0 -35.168,7.058 -47.99,19.88c-10.276,10.287 -16.838,23.288 -19.039,37.379l-18.501,0c-5.86,0.001 -10.612,4.753 -10.612,10.613s4.752,10.612 10.612,10.612l490.776,0c5.86,0 10.612,-4.752 10.612,-10.612s-4.752,-10.612 -10.612,-10.612zm-305.822,0c2.797,-5.394 4.388,-11.511 4.388,-17.995l0,-82.6c0,-30.897 25.141,-56.034 56.045,-56.034c14.977,0 29.05,5.826 39.625,16.402c10.589,10.597 16.42,24.672 16.42,39.632l0,82.6c0,6.484 1.591,12.601 4.388,17.995l-120.866,0z"/>
   </g>
  </g>
  <g id="svg_19"/>
  <g id="svg_20"/>
  <g id="svg_21"/>
  <g id="svg_22"/>
  <g id="svg_23"/>
  <g id="svg_24"/>
  <g id="svg_25"/>
  <g id="svg_26"/>
  <g id="svg_27"/>
  <g id="svg_28"/>
  <g id="svg_29"/>
  <g id="svg_30"/>
  <g id="svg_31"/>
  <g id="svg_32"/>
  <g id="svg_33"/>
 </g>
</svg>